<svg fill="#000000" xmlns="http://www.w3.org/2000/svg" viewBox="0 0 50 50" width="50px" height="50px"><path d="M 15 9 C 9.484375 9 3.546875 12.109375 3.546875 12.109375 C 3.246094 12.261719 3.042969 12.554688 3.007813 12.890625 L 0.0078125 39.890625 C -0.0351563 40.246094 0.121094 40.59375 0.410156 40.804688 C 0.695313 41.019531 1.078125 41.058594 1.40625 40.914063 C 1.40625 40.914063 8.078125 38 15 38 C 19.265625 38 24.507813 40.871094 24.507813 40.871094 C 24.8125 41.042969 25.1875 41.042969 25.492188 40.871094 C 25.492188 40.871094 30.734375 38 35 38 C 41.921875 38 48.59375 40.914063 48.59375 40.914063 C 48.921875 41.058594 49.304688 41.019531 49.589844 40.804688 C 49.878906 40.59375 50.035156 40.246094 49.996094 39.890625 L 46.996094 12.890625 C 46.957031 12.554688 46.753906 12.261719 46.453125 12.109375 C 46.453125 12.109375 40.667969 9.101563 35.210938 9.023438 C 35.207031 9.023438 35.207031 9.023438 35.203125 9.023438 C 35.136719 9.007813 35.066406 9 35 9 C 29.933594 9 25.726563 11.457031 25 11.890625 C 24.273438 11.457031 20.066406 9 15 9 Z M 15 11 C 19.738281 11 24.476563 13.851563 24.476563 13.851563 C 24.796875 14.046875 25.203125 14.046875 25.523438 13.851563 C 25.523438 13.851563 30.261719 11 35 11 C 39.414063 11 44.367188 13.355469 45.070313 13.695313 L 47.828125 38.53125 C 45.960938 37.789063 41.140625 36 35 36 C 30.261719 36 25.707031 38.5 25 38.898438 C 24.292969 38.5 19.738281 36 15 36 C 8.859375 36 4.039063 37.789063 2.171875 38.53125 L 4.929688 13.695313 C 5.632813 13.355469 10.585938 11 15 11 Z M 15 13 C 12.445313 13 9.167969 14.09375 7.472656 15.152344 C 7.214844 15.308594 7.046875 15.574219 7.007813 15.875 L 4.695313 34.3125 C 4.652344 34.65625 4.789063 35 5.0625 35.21875 C 5.332031 35.433594 5.695313 35.496094 6.019531 35.378906 C 8.371094 34.554688 11.980469 34 15 34 C 18.796875 34 22.542969 35.070313 24.59375 35.984375 C 24.722656 36.042969 24.859375 36.070313 25 36.070313 C 25.144531 36.070313 25.289063 36.039063 25.421875 35.980469 C 28.292969 34.644531 31.753906 33.929688 34.976563 34 C 35.277344 34.015625 35.539063 33.890625 35.734375 33.675781 C 35.929688 33.464844 36.023438 33.179688 35.996094 32.894531 L 33.996094 13.894531 C 33.96875 13.628906 33.835938 13.386719 33.625 13.21875 C 33.421875 13.054688 33.15625 12.976563 32.890625 13.003906 C 29.671875 13.367188 26.398438 15.636719 25.019531 16.703125 C 23.550781 15.53125 19.824219 13 15 13 Z"/></svg>